Coordinates
version=1
nRows=14
nColumns=40
inDegrees=yes

Units are S.I. units (second, meters, Newtons, ...)
Angles are in degrees.

endheader
time	pelvis_tilt	pelvis_list	pelvis_rotation	pelvis_tx	pelvis_ty	pelvis_tz	hip_flexion_r	hip_adduction_r	hip_rotation_r	knee_angle_r	knee_angle_r_beta	ankle_angle_r	subtalar_angle_r	mtp_angle_r	hip_flexion_l	hip_adduction_l	hip_rotation_l	knee_angle_l	knee_angle_l_beta	ankle_angle_l	subtalar_angle_l	mtp_angle_l	lumbar_extension	lumbar_bending	lumbar_rotation	arm_flex_r	arm_add_r	arm_rot_r	elbow_flex_r	pro_sup_r	wrist_flex_r	wrist_dev_r	arm_flex_l	arm_add_l	arm_rot_l	elbow_flex_l	pro_sup_l	wrist_flex_l	wrist_dev_l
     32.25000000	     -2.27805783	     -2.65747855	     -0.26005703	      0.94976202	      0.93460208	      0.42646807	     30.32490998	     -6.44319548	     -6.53793245	     67.77709840	     67.77709840	      1.10361176	    -14.96937517	      1.30023576	     12.30840500	     -1.61820387	     -8.60846383	     19.35781101	     19.35781101	     11.80808531	    -10.87608008	     -2.04752861	     -8.76931183	      4.03793476	      2.45829755	      5.30649773	    -11.15265830	     -1.73988595	     32.06405074	     45.66485245	      0.00000000	      0.00000000	     16.22361479	    -11.87129997	     -0.02046325	     42.54204572	     45.54195615	      0.00000000	      0.00000000
     32.26214286	     -2.30623068	     -2.82612551	     -0.40807754	      0.94920490	      0.93518937	      0.42604985	     31.04389485	     -6.16993202	     -6.64659068	     65.64875104	     65.64875104	      1.29285163	    -14.78333441	      1.26757240	     11.51353571	     -1.76205596	     -8.83168617	     18.80016501	     18.80016501	     12.09062168	    -10.45640493	     -2.23189998	     -8.80855622	      4.28535312	      2.61371594	      3.55320005	    -11.38105347	     -1.71775582	     30.82789524	     45.70712004	      0.00000000	      0.00000000	     17.39996535	    -12.05537392	     -0.31150176	     43.72517259	     45.60310232	      0.00000000	      0.00000000
     32.27428571	     -2.32295077	     -2.97884074	     -0.55978521	      0.94868876	      0.93564628	      0.42566616	     31.57423702	     -5.90057892	     -6.77991258	     63.24061492	     63.24061492	      1.03893504	    -14.79738893	      0.14019687	     10.72303488	     -1.93347833	     -9.26848206	     18.26901532	     18.26901532	     12.22032368	     -9.79893502	     -3.02844597	     -8.88233370	      4.50290947	      2.25036567	      2.66866123	    -11.26413131	     -2.13236690	     28.08614188	     45.88300722	      0.00000000	      0.00000000	     17.71373380	    -12.57296637	     -1.35765100	     46.63179235	     45.79288459	      0.00000000	      0.00000000
     32.28642857	     -2.32680926	     -3.09355627	     -0.71684016	      0.94818240	      0.93610665	      0.42525584	     31.98581600	     -5.65047288	     -6.88746237	     60.68116613	     60.68116613	      1.16207242	    -14.57274533	      0.31256777	      9.88485152	     -1.98923573	     -9.44766443	     17.65659403	     17.65659403	     12.46953804	     -9.49482645	     -3.07052616	     -8.97190907	      4.69450967	      2.44300749	      0.97485401	    -11.48520923	     -2.16384054	     26.91393871	     45.92962082	      0.00000000	      0.00000000	     18.88278445	    -12.74016923	     -1.74145040	     47.87780253	     45.86420826	      0.00000000	      0.00000000
     32.29857143	     -2.44935550	     -3.21709983	     -0.81146943	      0.94762675	      0.93626961	      0.42480605	     32.38543966	     -5.44534200	     -7.12489582	     57.90848977	     57.90848977	      1.29121162	    -14.24738551	      0.57992802	      9.26084854	     -2.06109551	     -9.57007249	     17.17085746	     17.17085746	     12.72300885	     -9.19135804	     -3.15893499	     -8.88855376	      4.93475814	      2.26947953	     -0.57564848	    -11.63696580	     -2.19850053	     26.02169339	     45.96190969	      0.00000000	      0.00000000	     19.86256944	    -13.11971863	     -2.06627723	     48.85935341	     45.91845532	      0.00000000	      0.00000000
     32.31071429	     -2.38914650	     -3.30652143	     -0.99708163	      0.94721370	      0.93664628	      0.42454931	     32.44207927	     -5.18242468	     -7.25299002	     54.86075867	     54.86075867	      1.38688993	    -13.93695898	      0.83636490	      8.33117389	     -2.11098605	     -9.90565163	     16.51997449	     16.51997449	     12.98292013	     -8.66376677	     -3.33499989	     -9.08587580	      5.05431412	      2.55042958	     -2.10684622	    -11.88150125	     -2.28733989	     24.81692822	     46.01762767	      0.00000000	      0.00000000	     20.80351927	    -13.13234464	     -2.55314428	     50.56614766	     45.99728517	      0.00000000	      0.00000000
     32.32285714	     -2.45220524	     -3.32335215	     -1.15986872	      0.94678135	      0.93659537	      0.42434136	     32.50729333	     -5.00504135	     -7.42637188	     51.58522507	     51.58522507	      1.26965769	    -13.67037055	      0.31465804	      7.63609868	     -2.14704027	    -10.47987292	     16.03642215	     16.03642215	     13.16108379	     -7.82918612	     -4.03213474	     -9.15304810	      5.09807305	      1.94347385	     -2.73455077	    -11.85426549	     -3.15017732	     22.82010462	     46.22917754	      0.00000000	      0.00000000	     20.50440811	    -13.63316432	     -4.36437450	     54.18782043	     46.23755343	      0.00000000	      0.00000000
     32.33500000	     -2.51659192	     -3.34183939	     -1.28786760	      0.94635714	      0.93653074	      0.42415714	     32.43645637	     -4.83910178	     -7.70066287	     48.08748076	     48.08748076	      1.40964486	    -13.05752159	      0.61167628	      6.91989370	     -2.10329809	    -10.66391584	     15.49255253	     15.49255253	     13.39702736	     -7.51903042	     -4.08410868	     -9.16637180	      5.18440345	      1.94721736	     -4.13909012	    -12.08264468	     -3.28280576	     22.11796537	     46.26878332	      0.00000000	      0.00000000	     21.38420520	    -13.80551739	     -4.73021479	     55.19115988	     46.29443906	      0.00000000	      0.00000000
     32.34714286	     -2.62154878	     -3.32474535	     -1.41985801	      0.94597852	      0.93626705	      0.42409318	     32.27926825	     -4.68713144	     -8.02157001	     44.38091286	     44.38091286	      1.55039239	    -12.24252983	      0.84496718	      6.24618657	     -2.03970947	    -10.93369558	     14.95192116	     14.95192116	     13.65206951	     -7.07484374	     -4.23058438	     -9.13201245	      5.20241441	      1.96576096	     -5.53644055	    -12.30739058	     -3.45218253	     21.55175590	     46.30532193	      0.00000000	      0.00000000	     22.12914578	    -13.95830665	     -5.14982379	     56.39532338	     46.35589286	      0.00000000	      0.00000000
     32.35928571	     -2.64267788	     -3.19976428	     -1.61502821	      0.94576584	      0.93594049	      0.42420596	     31.92746051	     -4.59625463	     -8.32301902	     40.52220925	     40.52220925	      1.57503505	    -11.14266137	      0.65820979	      5.41813317	     -1.88982409	    -11.47131557	     14.33472338	     14.33472338	     13.91523750	     -6.24783330	     -4.58004900	     -9.23740308	      5.05637957	      2.07947587	     -6.95045254	    -12.45612638	     -3.88661081	     21.21825535	     46.36625072	      0.00000000	      0.00000000	     22.62808930	    -14.02564226	     -5.96678644	     58.46839930	     46.46568303	      0.00000000	      0.00000000
     32.37142857	     -2.81782841	     -3.18526499	     -1.72039751	      0.94554975	      0.93530972	      0.42440393	     31.55681070	     -4.37145282	     -8.80288087	     36.45968805	     36.45968805	      1.58033999	     -9.88710109	      0.95205277	      4.86587157	     -1.84818695	    -11.71801454	     13.89675679	     13.89675679	     14.18041761	     -5.85344463	     -4.78738616	     -9.09592736	      5.07859679	      1.92752784	     -8.16632272	    -12.68763363	     -4.12137227	     20.92266660	     46.39717235	      0.00000000	      0.00000000	     23.09872246	    -14.26321759	     -6.39274875	     59.53507144	     46.52419580	      0.00000000	      0.00000000
     32.38357143	     -2.90403323	     -3.07484831	     -1.85002768	      0.94554946	      0.93463622	      0.42479204	     31.00673162	     -4.21042124	     -9.32109355	     32.41356658	     32.41356658	      1.56346001	     -8.26774537	      1.28566026	      4.15009124	     -1.71239670	    -12.09265222	     13.37006382	     13.37006382	     14.46257457	     -5.28691961	     -5.05461766	     -9.05696787	      4.95632691	      1.91856738	     -9.41276743	    -12.87231688	     -4.38274447	     20.74078597	     46.42451069	      0.00000000	      0.00000000	     23.55142269	    -14.39626122	     -6.86236361	     60.81985352	     46.58889281	      0.00000000	      0.00000000
     32.39571429	     -2.87531506	     -2.92600110	     -1.98717912	      0.94578499	      0.93397213	      0.42534793	     30.24098380	     -4.07171588	     -9.97353363	     28.45368027	     28.45368027	      1.54035384	     -6.21074435	      1.69050914	      3.26109429	     -1.54936400	    -12.57294659	     12.79167457	     12.79167457	     14.72408074	     -4.47569936	     -5.42702996	     -9.15583620	      4.76971943	      1.96858794	    -10.68599282	    -13.04898846	     -4.78019321	     20.83047804	     46.45394746	      0.00000000	      0.00000000	     23.85144667	    -14.47851217	     -7.48446734	     62.46051481	     46.67172314	      0.00000000	      0.00000000
     32.40785714	     -2.90249466	     -2.72983202	     -2.12011474	      0.94619393	      0.93299358	      0.42608995	     29.57513855	     -3.96702681	    -10.70395201	     24.86881410	     24.86881410	      1.52020506	     -3.95902766	      2.54063905	      2.47248419	     -1.37495134	    -13.23280030	     12.31371905	     12.31371905	     15.00367762	     -3.45392541	     -6.06165154	     -9.18049101	      4.49831430	      1.73531001	    -11.93819703	    -13.12849213	     -5.79256234	     21.78054601	     46.51385396	      0.00000000	      0.00000000	     23.63162226	    -14.61907221	     -8.62365363	     64.83896009	     46.81780695	      0.00000000	      0.00000000
